# AST/ASF file generated using VICON BodyLanguage
# -----------------------------------------------
:version 1.10
:name VICON
:units
  mass 1.0
  length 0.45
  angle deg
:documentation
   .ast/.asf automatically generated from VICON data using
   VICON BodyBuilder and BodyLanguage model FoxedUp or BRILLIANT.MOD
:root
   order TX TY TZ RX RY RZ
   axis XYZ
   position 0 0 0  
   orientation 0 0 0 
:bonedata
  begin
     id 1 
     name lhipjoint
     direction 0.64773 -0.699417 0.302095 
     length 2.48597 
     axis 0 0 0  XYZ
  end
  begin
     id 2 
     name lfemur
     direction 0.34202 -0.939693 0  
     length 6.71947  
     axis 0 0 20  XYZ
    dof rx ry rz
    limits (-160.0 20.0)
           (-70.0 70.0)
           (-60.0 70.0)
  end
  begin
     id 3 
     name ltibia
     direction 0.34202 -0.939693 0   
     length 8.08777   
     axis 0 0 20   XYZ
    dof rx
    limits (-10.0 170.0)
  end
  begin
     id 4 
     name lfoot
     direction 0.0808503 -0.222134 0.971658   
     length 2.08264   
     axis -90 7.62852e-016 20   XYZ
    dof rx rz
    limits (-45.0 90.0)
           (-70.0 20.0)
  end
  begin
     id 5 
     name ltoes
     direction 1.53502e-011 -4.22007e-011 1   
     length 1.04662   
     axis -90 7.62852e-016 20   XYZ
    dof rx
    limits (-90.0 20.0)
  end
  begin
     id 6 
     name rhipjoint
     direction -0.610924 -0.726792 0.313919   
     length 2.39233  
     axis 0 0 0  XYZ 
  end
  begin
     id 7 
     name rfemur
     direction -0.34202 -0.939693 0   
     length 6.96955   
     axis 0 0 -20   XYZ
    dof rx ry rz
    limits (-160.0 20.0)
           (-70.0 70.0)
           (-70.0 60.0)
  end
  begin
     id 8 
     name rtibia
     direction -0.34202 -0.939693 0   
     length 8.19584   
     axis 0 0 -20   XYZ
    dof rx
    limits (-10.0 170.0)
 end
 begin
     id 9 
     name rfoot
     direction -0.077777 -0.213691 0.9738   
     length 2.07539  
     axis -90 -7.62852e-016 -20   XYZ
    dof rx rz
    limits (-45.0 90.0)
           (-20.0 70.0)
  end
  begin
     id 10 
     name rtoes
     direction -1.53558e-011 -4.22006e-011 1   
     length 1.04381   
     axis -90 -7.62852e-016 -20   XYZ
    dof rx
    limits (-90.0 20.0)
  end
  begin
     id 11 
     name lowerback
     direction -0.00971646 0.996074 0.0879841   
     length 1.67643   
     axis 0 0 0   XYZ
    dof rx ry rz
    limits (-20.0 45.0)
           (-30.0 30.0)
           (-30.0 30.0)
  end
  begin
     id 12 
     name upperback
     direction 0.0127391 0.991676 0.128127   
     length 1.63741   
     axis 0 0 0   XYZ
    dof rx ry rz
    limits (-20.0 45.0)
           (-30.0 30.0)
           (-30.0 30.0)
  end
  begin
     id 13 
     name thorax
     direction 0.0167583 0.996049 0.0872067   
     length 1.65931   
     axis 0 0 0   XYZ
    dof rx ry rz
    limits (-20.0 45.0)
           (-30.0 30.0)
           (-30.0 30.0)
  end
  begin
     id 14 
     name lowerneck
     direction -0.0317829 0.998312 0.0486079   
     length 1.79021   
     axis 0 0 0   XYZ
    dof rx ry rz
    limits (-20.0 45.0)
           (-30.0 30.0)
           (-30.0 30.0)
  end
  begin
     id 15 
     name upperneck
     direction 0.0896851 0.972452 -0.215159   
     length 1.78797   
     axis 0 0 0   XYZ
    dof rx ry rz
    limits (-20.0 45.0)
           (-30.0 30.0)
           (-30.0 30.0)
  end
  begin
     id 16
     name head
     direction 0.0310949 0.996503 -0.0775582  
     length 1.81549  
     axis 0 0 0   XYZ
    dof rx ry rz
    limits (-20.0 45.0)
           (-30.0 30.0)
           (-30.0 30.0)
  end
  begin
     id 17 
     name lclavicle
     direction 0.853638 0.502051 -0.138733  
     length 3.31627  
     axis 0 0 0   XYZ
    dof ry rz
    limits (-20.0 10.0)
           (0.0 20.0)
  end
  begin
     id 18 
     name lhumerus
     direction 1 -4.48962e-011 -1.41788e-018   
     length 5.54893   
     axis 180 -30 -90   XYZ
    dof rx ry rz
    limits (-60.0 90.0)
           (-90.0 90.0)
           (-90.0 90.0)
  end
  begin
     id 19
     name lradius
     direction 1 -4.48962e-011 -4.95754e-027   
     length 3.02898   
     axis 180 -30 -90   XYZ
    dof rx
    limits (-10.0 170.0)
  end
  begin
     id 20
     name lwrist
     direction 1 -4.48952e-011 -1.03764e-026   
     length 1.51449   
     axis 9.09556e-015 90 90   XYZ
    dof ry
    limits (-180.0 0.0)
 end
  begin
     id 21 
     name lhand
     direction 1 -4.4902e-011 -2.07528e-026   
     length 0.640951   
     axis 1.3242e-014 90 90   XYZ
    dof rx rz
    limits (-90.0 90.0)
           (-45.0 45.0)
  end
  begin
     id 22 
     name lfingers
     direction 1 -4.49014e-011 -4.15056e-026   
     length 0.516751   
     axis 2.64841e-014 90 90   XYZ
    dof rx
    limits (0.0 90.0)
  end
  begin
     id 23
     name lthumb
     direction 0.707107 -6.35008e-011 0.707107   
     length 0.741954   
     axis -90 45 2.85299e-015   XYZ
    dof rx rz
    limits (-45.0 45.0)
           (-45.0 45.0)
  end
  begin
     id 24 
     name rclavicle
     direction -0.888531 0.455324 -0.0565039   
     length 3.20126  
     axis 0 0 0   XYZ 
    dof ry rz
    limits (-10.0 20.0)
           (-20.0 0.0)
  end
  begin
     id 25 
     name rhumerus
     direction -1 -4.48946e-011 -8.98298e-028  
     length 5.3519   
     axis 180 30 90   XYZ
    dof rx ry rz
    limits (-90.0 60.0)
           (-90.0 90.0)
           (-90.0 90.0)
  end
  begin
     id 26 
     name rradius
     direction -1 -4.4899e-011 -3.18779e-027   
     length 3.02531   
     axis 180 30 90   XYZ
    dof rx
    limits (-10.0 170.0)
  end
  begin
     id 27 
     name rwrist
     direction -1 -4.4897e-011 -1.03764e-026   
     length 1.51266   
     axis 9.09556e-015 -90 -90   XYZ
    dof ry
    limits (-180.0 0.0)
  end
  begin
     id 28
     name rhand
     direction -1 -4.48941e-011 -2.07528e-026   
     length 0.78389   
     axis 1.3242e-014 -90 -90   XYZ
    dof rx rz
    limits (-90.0 90.0)
           (-45.0 45.0)
  end
  begin
     id 29
     name rfingers
     direction -1 -4.49012e-011 -4.15056e-026   
     length 0.631992   
     axis 2.64841e-014 -90 -90   XYZ
    dof rx
    limits (0.0 90.0)
  end
  begin
     id 30
     name rthumb
     direction -0.707107 -6.3496e-011 0.707107   
     length 0.907418   
     axis -90 -45 -2.85299e-015   XYZ
    dof rx rz
    limits (-45.0 45.0)
           (-45.0 45.0)
  end
:hierarchy
  begin
    root lhipjoint rhipjoint lowerback
    lhipjoint lfemur
    lfemur ltibia
    ltibia lfoot
    lfoot ltoes
    rhipjoint rfemur
    rfemur rtibia
    rtibia rfoot
    rfoot rtoes
    lowerback upperback
    upperback thorax
    thorax lowerneck lclavicle rclavicle
    lowerneck upperneck
    upperneck head
    lclavicle lhumerus
    lhumerus lradius
    lradius lwrist
    lwrist lhand lthumb
    lhand lfingers
    rclavicle rhumerus
    rhumerus rradius
    rradius rwrist
    rwrist rhand rthumb
    rhand rfingers
  end

#!OML:ASF E:\Style3\Style3.ASF
:FULLY-SPECIFIED
:DEGREES
1402
root 1.07799 17.798 0.720361 -160.699 88.7726 183.009
lowerback -11.8939 -1.31981 -0.996006
upperback -12.1588 -0.893838 0.102845
thorax -6.17249 -0.0318316 0.572236
lowerneck -12.0576 -2.95741 -5.21186
upperneck 34.9204 -4.66328 8.31138
head 14.3098 -1.10649 3.73221
rclavicle 4.02539e-015 5.76476e-015
rhumerus 44.4146 -35.6037 -52.4882
rradius 18.2726
rwrist -12.4064
rhand -7.84718 21.7922
rfingers 7.12502
rthumb 18.0559 -7.38973
lclavicle 4.02539e-015 5.76476e-015
lhumerus 106.457 47.814 118.368
lradius 11.0382
lwrist -9.26807
lhand 0.73473 21.476
lfingers 7.12502
lthumb 26.2939 49.6737
rfemur -12.5923 11.8566 18.5072
rtibia 14.2773
rfoot -17.9538 -22.7099
rtoes -8.27946
lfemur -5.14967 -20.6521 -14.0763
ltibia -1.43125e-014
lfoot -11.48 25.2011
ltoes -14.5544
1403
root 1.08729 17.7917 0.71975 -161.569 88.7372 182.112
lowerback -12.0247 -1.36492 -1.02292
upperback -12.1286 -0.948821 0.144569
thorax -6.06547 -0.0564198 0.626353
lowerneck -12.069 -2.95956 -5.23481
upperneck 35.0456 -4.6207 8.1992
head 14.3633 -1.10249 3.70286
rclavicle 4.84538e-015 1.13307e-014
rhumerus 43.3877 -35.2365 -50.9012
rradius 18.6213
rwrist -13.5893
rhand -7.84313 21.4507
rfingers 7.12502
rthumb 18.0598 -7.73086
lclavicle 4.84538e-015 1.13307e-014
lhumerus 107.06 48.3769 118.506
lradius 11.1462
lwrist -9.60575
lhand 0.78123 21.3319
lfingers 7.12502
lthumb 26.3384 49.523
rfemur -12.5197 11.5376 18.5654
rtibia 14.2375
rfoot -17.5243 -22.7433
rtoes -9.76631
lfemur -5.13967 -20.6904 -14.0911
ltibia 1.90833e-014
lfoot -11.4231 25.2083
ltoes -14.7217
1404
root 1.09605 17.7845 0.719056 -164.426 88.7013 179.241
lowerback -12.1763 -1.39586 -1.08962
upperback -12.0782 -0.983878 0.159353
thorax -5.92496 -0.0702138 0.675242
lowerneck -12.0481 -2.97977 -5.29218
upperneck 35.1522 -4.61182 8.13717
head 14.4069 -1.1114 3.69463
rclavicle -5.96354e-015 -7.35503e-015
rhumerus 41.9758 -34.491 -48.7259
rradius 19.0785
rwrist -15.3887
rhand -8.0009 21.021
rfingers 7.12502
rthumb 17.908 -8.17455
lclavicle -5.96354e-015 -7.35503e-015
lhumerus 108.919 48.4168 120.292
lradius 11.0792
lwrist -11.1547
lhand 1.0006 21.1518
lfingers 7.12502
lthumb 26.5484 49.3113
rfemur -12.5583 11.2082 18.5641
rtibia 14.3323
rfoot -17.0395 -22.8623
rtoes -12.0887
lfemur -5.13166 -20.7444 -14.1561
ltibia 3.65764e-014
lfoot -11.3729 25.2289
ltoes -14.6785
1405
root 1.10419 17.7836 0.719933 -168.519 88.686 175.142
lowerback -12.1934 -1.43382 -1.23348
upperback -12.1103 -1.01885 0.187473
thorax -5.94764 -0.0738622 0.782564
lowerneck -11.9678 -2.99304 -5.35822
upperneck 35.28 -4.58343 8.05923
head 14.4447 -1.1144 3.68565
rclavicle 4.57205e-015 2.18663e-015
rhumerus 41.5112 -34.6446 -48.0148
rradius 19.1279
rwrist -15.5782
rhand -7.8369 20.9417
rfingers 7.12502
rthumb 18.0658 -8.23934
lclavicle 4.57205e-015 2.18663e-015
lhumerus 109.669 48.8188 120.813
lradius 11.102
lwrist -11.8973
lhand 1.01548 21.0898
lfingers 7.12502
lthumb 26.5627 49.2471
rfemur -12.5024 11.1959 18.4696
rtibia 14.2675
rfoot -16.9678 -22.9098
rtoes -12.2972
lfemur -5.12273 -20.7825 -14.258
ltibia 4.77083e-015
lfoot -11.5003 25.2282
ltoes -14.308
1406
root 1.1113 17.7821 0.719935 -166.751 88.6272 176.88
lowerback -12.2108 -1.47367 -1.23407
upperback -12.1627 -1.06317 0.258902
thorax -5.99408 -0.0895682 0.854761
lowerneck -11.8787 -2.98452 -5.38484
upperneck 35.3856 -4.52648 7.96169
head 14.4655 -1.10318 3.66438
rclavicle 8.12532e-015 -4.47266e-015
rhumerus 41.9153 -35.6102 -48.5863
rradius 18.8895
rwrist -14.4795
rhand -7.3962 21.0416
rfingers 7.12502
rthumb 18.4897 -8.09967
lclavicle 8.12532e-015 -4.47266e-015
lhumerus 108.237 50.0205 118.648
lradius 11.3674
lwrist -10.6729
lhand 0.971953 21.3501
lfingers 7.12502
lthumb 26.521 49.5138
rfemur -12.6072 11.2992 18.5088
rtibia 14.385
rfoot -16.9165 -23.1701
rtoes -12.6985
lfemur -5.14498 -20.8282 -14.1974
ltibia 1.59028e-015
lfoot -11.6267 25.2568
ltoes -14.1436
1407
root 1.11924 17.7884 0.719248 -165.144 88.5594 178.483
lowerback -12.2205 -1.51233 -1.20699
upperback -12.1884 -1.11138 0.316783
thorax -6.01562 -0.111544 0.897132
lowerneck -11.8184 -2.95607 -5.36451
upperneck 35.4982 -4.44869 7.85601
head 14.4929 -1.07721 3.63476
rclavicle -5.71506e-016 -4.77083e-015
rhumerus 42.3969 -36.6406 -49.3055
rradius 18.7008
rwrist -13.2922
rhand -6.97971 21.0916
rfingers 7.12502
rthumb 18.8903 -8.01109
lclavicle -5.71506e-016 -4.77083e-015
lhumerus 106.92 51.119 116.645
lradius 11.6306
lwrist -9.41125
lhand 1.05258 21.6955
lfingers 7.12502
lthumb 26.5982 49.8475
rfemur -12.7442 11.5189 18.509
rtibia 14.6321
rfoot -17.5 -23.1236
rtoes -10.9506
lfemur -5.13918 -20.8842 -14.1464
ltibia 1.59028e-014
lfoot -11.6231 25.2822
ltoes -14.3708
1408
root 1.12693 17.8024 0.718546 -164.204 88.4749 179.41
lowerback -12.2064 -1.53741 -1.16153
upperback -12.2158 -1.14455 0.338231
thorax -6.05339 -0.128939 0.89223
lowerneck -11.8003 -2.95212 -5.32052
upperneck 35.5924 -4.41612 7.75357
head 14.5254 -1.06756 3.59403
rclavicle 2.77056e-015 3.77691e-015
rhumerus 42.7044 -37.5593 -49.806
rradius 18.5659
rwrist -12.3966
rhand -6.4933 21.132
rfingers 7.12502
rthumb 19.3581 -7.92448
lclavicle 2.77056e-015 3.77691e-015
lhumerus 106.207 51.9144 115.476
lradius 11.8355
lwrist -8.73409
lhand 1.1702 21.8043
lfingers 7.12502
lthumb 26.7107 49.9391
rfemur -12.7866 11.8068 18.4748
rtibia 14.8463
rfoot -18.7208 -22.7227
rtoes -7.3131
lfemur -5.15789 -20.9589 -14.1015
ltibia 1.43125e-014
lfoot -11.3882 25.3332
ltoes -15.0607
